<svg xmlns="http://www.w3.org/2000/svg" width="500" height="500" style="shape-rendering:geometricPrecision;text-rendering:geometricPrecision;image-rendering:optimizeQuality;fill-rule:evenodd;clip-rule:evenodd"><path fill="#fefffe" d="M345.5 6.5q2 1 0 0M470.5 6.5q2 1 0 0M304.5 9.5q2 1 0 0M82.5 16.5q2 1 0 0M138.5 30.5q2 1 0 0" style="opacity:.004"/><path fill="#1b2833" d="M305.5 30.5q-1.264 2.51-4 3.5 3.004 2.728 4 6.5 5.352-1.305 10-4.5l-1-1a18.4 18.4 0 0 1 6-.5q-14.56 10.365-32 15-32.953 8.348-66 2a427 427 0 0 0 47 .5q-2-1 0-2l-2-1q4.72-2.13 9.5-.5 3.036-.45 1.5-2.5-3.56-3.097-6.5.5-14.663-1.095-29.5-2-11.335.375-22 1a42.3 42.3 0 0 1-6.5-4q-2.376.732-3.5 3-1.817-1.16 0-2.5a64 64 0 0 1-5.5-4.5 129 129 0 0 0-2 3q-2.082-1.58-4.5-.5-1.817 1.67 0 3.5a42.2 42.2 0 0 0 14 4l8 4a106 106 0 0 1-20-5 235 235 0 0 1-26-14q-9.26 6.63-20 10 3.308-2.94 8-4a4.93 4.93 0 0 1 .5-3q1.574 1.526 3.5.5a15.7 15.7 0 0 1-4-2.5 10.4 10.4 0 0 1-5 3 22.5 22.5 0 0 0-3-4q.519-1.794 1.5 0l1.5-3a1944 1944 0 0 0 16-10 241 241 0 0 0 32 16.5q37.005 11.578 75 4 13.19-3.162 25-9.5" style="opacity:1"/><path fill="#112433" d="M443.5 54.5q-.129 1.495 1 2.5a9.5 9.5 0 0 0-2.5 1.5q-.054 3.662-2.5 6-.613-5.355 0-11h-4v4h-3a36 36 0 0 0-6-8q-.705-1.79-3-2-3.018.51-6 1a205 205 0 0 1-40 1.5 252 252 0 0 0-30-5.5q-11.233-3.617-21-10.5-3.147-1.016-6 .5a18.4 18.4 0 0 0-6 .5l1 1q-4.648 3.195-10 4.5-.996-3.772-4-6.5 2.736-.99 4-3.5a410 410 0 0 0 20.5-12q23.661 19.183 54.5 21.5 23.877 2.12 46.5-5.5a13.24 13.24 0 0 1 5 3 281 281 0 0 1 11.5 17" style="opacity:1"/><path fill="#26291c" d="M347.5 44.5a252 252 0 0 1 30 5.5q20.16 1.204 40-1.5a158 158 0 0 1-12 2.5q-30.058 3.537-58-6.5" style="opacity:1"/><path fill="#092032" d="M222.5 51.5h-2l-8-4a42.2 42.2 0 0 1-14-4q-1.817-1.83 0-3.5 2.418-1.08 4.5.5a129 129 0 0 1 2-3 64 64 0 0 0 5.5 4.5q-1.817 1.34 0 2.5 1.124-2.268 3.5-3a42.3 42.3 0 0 0 6.5 4q10.665-.625 22-1 14.837.905 29.5 2 2.94-3.597 6.5-.5 1.536 2.05-1.5 2.5-4.78-1.63-9.5.5l2 1q-2 1 0 2-23.521 1.044-47-.5" style="opacity:1"/><path fill="#cea441" d="M347.5 44.5q27.942 10.037 58 6.5a158 158 0 0 0 12-2.5q2.982-.49 6-1 2.295.21 3 2a10 10 0 0 0-3-1q-16.542 5.187-34 4l-21-.5q-1.394-1.485-3.5-1.5-6.1 5.952-12.5 0a10.26 10.26 0 0 1 4-1.5q-9.144-1.927-14 6 8.442 2.726 16 6.5a52 52 0 0 1-7-1q-14.383-4.626-28-12-4.273.9-7 4l-7 2q-3.399-.538-5.5 2-4.961-4.64-5.5 2-3.734.303-7-1.5a28.8 28.8 0 0 0-4-6q.834-.575 1-1.5 17.44-4.635 32-15 2.853-1.516 6-.5 9.767 6.883 21 10.5" style="opacity:1"/><path fill="#d1a43e" d="M200.5 46.5q4.291 3.388 10 4.5-5.874 2.577 1 3.5 1.794-.519 0-1.5 5.229-1.564 9 2a34.2 34.2 0 0 0-8 1.5q-2.053 5.12-7 3 3.587-1.963 0-3l-4 1a88 88 0 0 1-14-3l-12-5a167 167 0 0 0-16 7.5 312 312 0 0 1-24 5.5 373 373 0 0 1-52 0q.565 4.538.5 9-2.93 2.755-3 7a3.94 3.94 0 0 1-2 1A206 206 0 0 1 70.5 65a9.6 9.6 0 0 1 3-3 270 270 0 0 0-6.5-.5q-.483-3.284 1.5-6a37 37 0 0 1 4-7q3.466-1.613 7 0 19.503 4.41 40 2.5a412 412 0 0 0 18-2 76.6 76.6 0 0 0 17-6.5q10.74-3.37 20-10a235 235 0 0 0 26 14" style="opacity:1"/><path fill="#292b1d" d="M154.5 42.5a76.6 76.6 0 0 1-17 6.5 412 412 0 0 1-18 2q-20.497 1.91-40-2.5 12.72 1.11 25.5 2a705 705 0 0 0 30.5-2.5q9.486-3.25 19-5.5" style="opacity:1"/><path fill="#192023" d="M187.5 54.5a136 136 0 0 0 35 12q-4.332-.766-7 2a113 113 0 0 1-12-2 115 115 0 0 0-13-5q-.513-1.258-2-1a10.5 10.5 0 0 1-3-2.5 24.7 24.7 0 0 1-10-3.5q-9.867 2.44-18 8-3.597-.36-6 2a316 316 0 0 0-20 4h-1q-1.144-1.152-3-1.5a606 606 0 0 1-35-1.5q21.896.9 43-3a312 312 0 0 0 24-5.5 167 167 0 0 1 16-7.5z" style="opacity:1"/><path fill="#c5a049" d="M200.5 46.5a106 106 0 0 0 20 5h2q33.047 6.348 66-2-.166.925-1 1.5a28.8 28.8 0 0 1 4 6q3.266 1.803 7 1.5.539-6.64 5.5-2 2.101-2.538 5.5-2a81 81 0 0 1-3 2.5 374 374 0 0 0-19 6.5q-31.73 6.16-64 3h-1a136 136 0 0 1-35-12 88 88 0 0 0 14 3l4-1q3.587 1.037 0 3 4.947 2.12 7-3a34.2 34.2 0 0 1 8-1.5q-3.771-3.564-9-2 1.794.981 0 1.5-6.874-.923-1-3.5-5.709-1.112-10-4.5" style="opacity:1"/><path fill="#d3a53b" d="M277.5 52.5q5.27-.29 10 2l-4 2q4.821.816 9 3-19.059 6.624-39 4-3.103.486-1 2.5-14.532.792-29-1l-2-2-10-1a47 47 0 0 0 12-6.5l6-1a257 257 0 0 0 47-.5q.834-.575 1-1.5" style="opacity:1"/><path fill="#fefffe" d="M475.5 57.5q2 1 0 0" style="opacity:.004"/><path fill="#0c2131" d="M351.5 60.5q2.287 2.304 6 3 21.9 4.662 44 2 6.185-2.058 13-1.5-6.92 11.522-10 24.5-4.741 10.835-6 23-2.26 8.89-2 18.5l.5 12.5q.574.834 1.5 1l4 15a18.5 18.5 0 0 0 .5 6 588 588 0 0 0 7.5 23q-5.157-6.651-6-15h-3q.674 3.716-2 6l-1-6a6.85 6.85 0 0 1-4 1q3.276-5.568 5-12a76 76 0 0 1-8 5q1.717 2.086 0 4a15.4 15.4 0 0 1-7 1q-.444 4.144-3 7.5-6.07 1.722-6-4.5 1.941 1.185 3.5 3a214 214 0 0 1 10.5-14q-1.8-1.188-4 0-1.509-.656 0-2 3.218-.357 5-3a2809 2809 0 0 1-8-15q.3-4.897-4.5-6-4.107 4.23-6 10a6.8 6.8 0 0 0-1.5-3q-1.659 2.676 0 5.5-3.817 3.546-4 10.5-1.467-.467-2-2 1.392-1.902.5-4a32.4 32.4 0 0 0-5.5 4l-1-1.5q2.658-5.161 7.5-8.5.919-2.606-2-3-1.866 3.114-5.5 3v4h-3q2.154-5.277 6-10-1.392-1.902-.5-4 3.599 5.767 4.5-.5a567 567 0 0 1-1.5-28.5q-.574-.834-1.5-1-1.144-2.802-3-5-6.207-17.594-24-23l-2-2q-6.6-4.587-15-4.5a843 843 0 0 0-71 .5h-1a9344 9344 0 0 0-1.5 137q.153-6.684-2.5-12a5.58 5.58 0 0 1 1-3l-2-1a111 111 0 0 1-25 .5q-1.374-.417-2-1.5h1q13.876.477 27.5-1a2444 2444 0 0 0-.5-121 268 268 0 0 1-27-3v-1q2.668-2.766 7-2h1q1.144 1.152 3 1.5 30.59 1.455 61-2l-2-1q1.374-.417 2-1.5 5.777-1.593 11.5 0 2.344-.903-.5-2.5 6.171-2.245 12.5-4.5a31 31 0 0 0 11.5 3q.255-1.983-1-3.5a20.2 20.2 0 0 1-6-1.5q.544-1.026 1-2 2.727-3.1 7-4 13.617 7.374 28 12" style="opacity:1"/><path fill="#17242c" d="M443.5 54.5q4.249 2.86 2.5 8-2.548 5.132-6.5 9-1.248-9.34-6.5-1-1.088-2.487-3.5-1.5a158 158 0 0 0-4 11.5h-3q-2.59 8.193-3.5 17-2.23-1.862-2.5 1.5 1.42 6.252 1 12a4.93 4.93 0 0 1-3 .5q1.008 5.163-3 8 1.943-32.364 21.5-58 .868-2.142-.5-4h3v-4h4q-.613 5.645 0 11 2.446-2.338 2.5-6a9.5 9.5 0 0 1 2.5-1.5q-1.129-1.005-1-2.5" style="opacity:1"/><path fill="#182426" d="M316.5 52.5q-.456.974-1 2a20.2 20.2 0 0 0 6 1.5q1.255 1.517 1 3.5a31 31 0 0 1-11.5-3 1954 1954 0 0 0-12.5 4.5q2.844 1.597.5 2.5-5.723-1.593-11.5 0a374 374 0 0 1 19-6.5 81 81 0 0 0 3-2.5z" style="opacity:1"/><path fill="#d1d3d6" d="M53.5 63.5q2.11.71 2 3-2.11-.71-2-3" style="opacity:.004"/><path fill="#151e1a" d="M351.5 60.5q3.459.74 7 1 21.116 5.197 43 4-22.1 2.662-44-2-3.713-.696-6-3" style="opacity:1"/><path fill="#1b1e30" d="M91.5 65.5h1q17.239 1.245 35 1.5 1.856.348 3 1.5a594 594 0 0 1-37 1v3a26.4 26.4 0 0 0-4.5-4 4.93 4.93 0 0 1-.5-3z" style="opacity:1"/><path fill="#131c16" d="M287.5 63.5q-.626 1.083-2 1.5l2 1a380 380 0 0 1-61 2q-1.856-.348-3-1.5 32.27 3.16 64-3" style="opacity:1"/><path fill="#1a201d" d="M91.5 65.5h-3a4.93 4.93 0 0 0 .5 3 26.4 26.4 0 0 1 4.5 4v4q-.456.975-1 2a35.2 35.2 0 0 1 2 8l-2-2a199 199 0 0 0-8-21q3.979-.136 7 2" style="opacity:1"/><path fill="#232618" d="M247.5 74.5a843 843 0 0 1 71-.5q8.4-.087 15 4.5a116.4 116.4 0 0 0-16-3 1226 1226 0 0 0-70-1" style="opacity:1"/><path fill="#92222b" d="M130.5 68.5h1v125q-20.563.972-40-2a428 428 0 0 1 8-25q8.163-18.093 7-38.5-.007-8.814-2-16.5a41.6 41.6 0 0 0-3-11q-.762-13.286-8-24v-7q18.52.075 37-1" style="opacity:1"/><path fill="#fefffe" d="M24.5 79.5q2 1 0 0" style="opacity:.004"/><path fill="#d4a53b" d="M189.5 62.5q0-1 1-1a115 115 0 0 1 13 5q.166.925 1 1.5 4.991.915 10 1.5.25 61.502-.5 123a130 130 0 0 1-22.5 1q-.993-65.646-2-131" style="opacity:1"/><path fill="#bf9c48" d="M68.5 55.5q-1.983 2.716-1.5 6 2.961.188 6.5.5a9.6 9.6 0 0 0-3 3A206 206 0 0 0 79 79.5a3.94 3.94 0 0 0 2-1q.07-4.245 3-7a65 65 0 0 0-.5-9 373 373 0 0 0 52 0q-21.104 3.9-43 3h-1q-3.021-2.136-7-2a199 199 0 0 1 8 21q-3.752-5.504-6-12-2.01 1.782-2 4.5a27.2 27.2 0 0 1 2 5.5h-4a53.8 53.8 0 0 0 2 16l-4-8q-4.845-16.687-16-30 .95-3.428 4-5" style="opacity:1"/><path fill="#cca74f" d="M317.5 75.5q8.145.948 16 3l2 2a624 624 0 0 1-20-3.5q-33.496-.75-67-.5v134q.426 2.872-1 5v-140z" style="opacity:1"/><path fill="#fefffe" d="M483.5 91.5q2 1 0 0" style="opacity:.004"/><path fill="#1d2729" d="M318.5 87.5a107 107 0 0 0 14 5.5q5.943 3.21 10 8.5a31.7 31.7 0 0 1-6-2l-4 4q1.088-3.163 0-7a16.1 16.1 0 0 0-5 2.5q1.654 4.973 5.5 8.5 1.201 4.3-.5 8 .468-13.271-13-11.5a59 59 0 0 0-9-5q-13.491-.75-27-.5-.35-2.343-2-4-2.765-2.668-2-7z" style="opacity:1"/><path fill="#092034" d="M281.5 94.5q-1.201-2.313-1-5a578 578 0 0 1 42 1v3q-7.018-.25-14 .5l4 2q-.912 1.305-2.5 1.5a373 373 0 0 0-25.5-1.5l1-1a8.44 8.44 0 0 0-4-.5" style="opacity:1"/><path fill="#142026" d="M273.5 88.5q.472 4.066-2 7-4.205 4.056-2.5 10a19.6 19.6 0 0 1 3.5 4q1.49 14.728 1 30-4.988-.009-7 4.5a18.5 18.5 0 0 1-6 .5v-56z" style="opacity:1"/><path fill="#d4a43c" d="M157.5 62.5a4290 4290 0 0 1 1 131q-13.155.928-25.5-2-1.25-61.006.5-122 1.419.73 3 1a312 312 0 0 1 15-6q2.403-2.36 6-2" style="opacity:1"/><path fill="#af9453" d="M94.5 90.5q4.125 7.83 4 17a53 53 0 0 0-3-8 21.1 21.1 0 0 1-1-9" style="opacity:1"/><path fill="#93222a" d="M188.5 60.5q.492 66.608-1 133h-29q.498-65.755-1-131 8.133-5.56 18-8a24.7 24.7 0 0 0 10 3.5 10.5 10.5 0 0 0 3 2.5" style="opacity:1"/><path fill="#fefffe" d="M53.5 101.5q2 1 0 0M24.5 105.5q2 1 0 0" style="opacity:.004"/><path fill="#cea441" d="M335.5 80.5q17.793 5.406 24 23a28.8 28.8 0 0 1-1 10 17.5 17.5 0 0 1 3 6q-1.492 12.002-5 24a45 45 0 0 1-7 9 45.4 45.4 0 0 1 8 8q5.607 4.689 7.5 12 .749 8.986.5 18-3.186 13.715-14 23a319 319 0 0 1 2-5l-1-2-2 3a69 69 0 0 1-6.5-4q-3.38 4.161-8.5 5 5.895-3.388 10-9 4.742-4.463 6.5-11 4.825-17.228-5-32-4.135-5.14-10-8 .29-2.373 2.5-4 7.155-5.794 9-15 2.181-4.827 2-10.5.259-5.216-2-9.5-1.497-6.008-6-10-4.057-5.29-10-8.5a107 107 0 0 1-14-5.5q5.777 1.591 11.5 0 2.717 1.386-.5 2.5 4.753 3.95 10 1l-1-1a6.98 6.98 0 0 0 3.5-2.5q8.64 8.313 2.5-1.5a19.93 19.93 0 0 0-9-2.5z" style="opacity:1"/><path fill="#141d28" d="M93.5 76.5q7.238 10.714 8 24a72 72 0 0 1 1 11l-2-2-2-2q.125-9.17-4-17v-4a35.2 35.2 0 0 0-2-8q.544-1.025 1-2" style="opacity:1"/><path fill="#0d2131" d="M283.5 106.5q13.509-.25 27 .5l-1 1q2.96.743 6 .5h1q-3.743 12.727 9 12v9a25.7 25.7 0 0 0-6 6 107 107 0 0 0-9 8.5l-15 .5q-8.071-.008-15-2a309 309 0 0 1 1-34z" style="opacity:1"/><path fill="#fefffe" d="M496.5 110.5q2 1 0 0" style="opacity:.004"/><path fill="#092133" d="M272.5 109.5v29l-11 4q-.789-7.368 2-14a197.3 197.3 0 0 1-.5-34l1 5q1 2 2 0 .747 4.473.5 9z" style="opacity:1"/><path fill="#cba54a" d="M359.5 103.5q1.856 2.198 3 5 3.091 16.544-3.5 32a81 81 0 0 1-2.5 3q3.508-11.998 5-24a17.5 17.5 0 0 0-3-6 28.8 28.8 0 0 0 1-10" style="opacity:1"/><path fill="#331c2c" d="M101.5 100.5a41.6 41.6 0 0 1 3 11q2.067 16.277-1 32 .49-13.274-1-26v-6a72 72 0 0 0-1-11" style="opacity:1"/><path fill="#c38744" d="M203.5 66.5a113 113 0 0 0 12 2v126h-26v-1h2q11.38.471 22.5-1 .75-61.498.5-123-5.009-.585-10-1.5-.834-.575-1-1.5" style="opacity:1"/><path fill="#0b2131" d="M342.5 101.5q4.503 3.992 6 10v20q-1.845 9.206-9 15-1.875-.116-2.5-2a39.5 39.5 0 0 1-4.5 6 105 105 0 0 1 8 7q1.393 1.783 1 4h-3v-1q-4.368-4.527-11-4.5-1.752-2.108 1-3.5a35 35 0 0 0-4-5.5 48.6 48.6 0 0 0 6-7.5 38.2 38.2 0 0 0 2-11q.642-5.663-2-10.5.208-1.951 2-2.5 1.701-3.7.5-8-3.846-3.527-5.5-8.5a16.1 16.1 0 0 1 5-2.5q1.088 3.837 0 7l4-4a31.7 31.7 0 0 0 6 2" style="opacity:1"/><path fill="#776f4d" d="M259.5 87.5q7.295-.48 14 1h-13v56a813 813 0 0 1-1-57" style="opacity:1"/><path fill="#252719" d="M348.5 111.5q2.259 4.284 2 9.5.181 5.673-2 10.5z" style="opacity:1"/><path fill="#161f1f" d="m100.5 109.5 2 2v6q.25 15.009-.5 30-2.29 1.567-2.5 4.5a292 292 0 0 0-1.5 15.5l-1-2a39 39 0 0 1-2.5 5 82 82 0 0 1 2-10q5.292-25.185 4-51" style="opacity:1"/><path fill="#93202b" d="M215.5 69.5a268 268 0 0 0 27 3 5524 5524 0 0 0-1 120q-13.127-.455-26 1z" style="opacity:1"/><path fill="#1c211e" d="m80.5 90.5 4 8q4.98 25.329 1.5 51-.417 1.373-1.5 2 .304-14.508 1-28.5L84 106.5a76 76 0 0 1-3.5-16" style="opacity:1"/><path fill="#c0a053" d="M404.5 88.5a237 237 0 0 1-3.5 17q-1 19.5 0 39 2.069 6.804 1.5 14l-4-15v-32q1.259-12.165 6-23" style="opacity:1"/><path fill="#943b1c" d="M188.5 60.5q1.487-.258 2 1-1 0-1 1v131h-2a4457 4457 0 0 0 1-133" style="opacity:1"/><path fill="#8a7f58" d="M246.5 74.5h1q35.259-.496 70 1h-70v140h-1z" style="opacity:1"/><path fill="#dd9f4f" d="M189.5 62.5q1.007 65.354 2 131h-2z" style="opacity:1"/><path fill="#d0a43d" d="M426.5 49.5a36 36 0 0 1 6 8q1.368 1.858.5 4-19.557 25.636-21.5 58 .106 68.227 47 118a108.6 108.6 0 0 0-17 18 1465 1465 0 0 1-6 66 81 81 0 0 0-2.5 3 74.3 74.3 0 0 1-5 16 113 113 0 0 0-5.5-8.5q4.812-4.056 2-10 2.473-6.498 2-13.5v-1a945 945 0 0 0 3.5-10q.297-23.066 1.5-46a77.4 77.4 0 0 1 9-12 790 790 0 0 1-20-31 333 333 0 0 0-9-19l-1-2a588 588 0 0 1-7.5-23 18.5 18.5 0 0 1-.5-6q.569-7.196-1.5-14-1-19.5 0-39a237 237 0 0 0 3.5-17q3.08-12.978 10-24.5-6.815-.558-13 1.5-21.884 1.197-43-4-7.558-3.774-16-6.5 4.856-7.927 14-6a10.26 10.26 0 0 0-4 1.5q6.4 5.952 12.5 0 2.106.015 3.5 1.5l21 .5q17.458 1.187 34-4 1.626.277 3 1" style="opacity:1"/><path fill="#181f19" d="M398.5 111.5v32q-.926-.166-1.5-1l-.5-12.5q-.26-9.61 2-18.5" style="opacity:1"/><path fill="#172328" d="M332.5 128.5a38.2 38.2 0 0 1-2 11 48.6 48.6 0 0 1-6 7.5 35 35 0 0 1 4 5.5q-2.752 1.392-1 3.5 6.632-.027 11 4.5a103 103 0 0 0-10-1.5 194 194 0 0 0-12-11.5 514 514 0 0 0 3-4q9.275-5.262 13-15" style="opacity:1"/><path fill="#c6a24b" d="M259.5 87.5a813 813 0 0 0 1 57 18.5 18.5 0 0 0 6-.5q2.012-4.509 7-4.5.49-15.272-1-30a19.6 19.6 0 0 0-3.5-4q-1.705-5.944 2.5-10-1.488 4.918-.5 10l6 4q2.559-1.212 2.5-4-2.398.401-4-1 2.188.1 4-1 3.53 6.467 3-1 14.534.498 29-1a736 736 0 0 1-28-3q13.509-.25 27 .5a59 59 0 0 1 9 5q13.468-1.771 13 11.5-1.792.549-2 2.5 2.642 4.837 2 10.5-3.725 9.738-13 15v-3h3q-.21-2.435 2-3.5a9.5 9.5 0 0 1-1.5-2.5q-1.517 1.255-3.5 1a25.7 25.7 0 0 1 6-6q1.469-4.687 1-10-10.266-.764-10-11h-1q-2.213-2.864-6-3.5l-13-.5q-7.083.012-13 2l-2 2q-.926.166-1.5 1a544 544 0 0 0-.5 33 475 475 0 0 1-1.5-31q-1.112 1.712-2.5 0a7191 7191 0 0 0-2 30l1 1 2-2a33.7 33.7 0 0 1 2 7q.552 2.513 3 3l-2 3q-.926.166-1.5 1a228.7 228.7 0 0 0 .5 37 6.55 6.55 0 0 1 3 3 307 307 0 0 0 35 1q-.166.925-1 1.5-15.57.285-31 1.5-6.366-4.632-4 3a411 411 0 0 1 40-1l-38 2-3 4q-1.465 4.18-1 9-2.605-3.762-2.5-9-1.937-1.937-3.5 0-2.596-.789-4-3-1.26-6.616 3.5-11l.5-19q-.005-10.056-2-19-2.343-.35-4-2-2.127-2.712-6-2v65q-1.998-15.969-2-33 .102-47.672 1-95" style="opacity:1"/><path fill="#424229" d="M281.5 108.5a309 309 0 0 0-1 34h-1q-.25-16.507.5-33 .574-.834 1.5-1" style="opacity:1"/><path fill="#282518" d="M316.5 108.5q-.266 10.236 10 11 .469 5.313-1 10v-9q-12.743.727-9-12" style="opacity:1"/><path fill="#322e13" d="M323.5 109.5h3v5q-5.676-.038-3-5" style="opacity:1"/><path fill="#1a1e18" d="M315.5 108.5a18.5 18.5 0 0 1-6-.5l1-1q-13.491-.75-27-.5 5.917-1.988 13-2l13 .5q3.787.636 6 3.5" style="opacity:1"/><path fill="#132433" d="M439.5 71.5q-21.843 34.356-15.5 75a320 320 0 0 0 10.5 36q-.11 2.29 2 3v1q2.423 4.869-1 9a12.4 12.4 0 0 0 4.5 5q.634-2.184 2.5-1.5a3.65 3.65 0 0 0-1 1.5q2.507 3.015 2 7 1.763-.329 3 1l7 10q1.783 1.393 4 1a125.6 125.6 0 0 1 15 17.5 16.2 16.2 0 0 1-1.5 3.5 241 241 0 0 0-18 19 352 352 0 0 1-3.5 51q-2.494 2.908-2 7v2q-5.14 5.89-4 14-1.832 9.11-6 17-1.986-2.025-3 .5-3.107 4.743-3.5 10.5a11.3 11.3 0 0 0-3.5-1.5 4.93 4.93 0 0 0 1-2.5q-2.156-3.115-2-7a243 243 0 0 0 9-29q1.902-3.608 2-8 3.288-5.397 3-12a773 773 0 0 0 1-46 108.6 108.6 0 0 1 17-18q-46.894-49.773-47-118 4.008-2.837 3-8a4.93 4.93 0 0 0 3-.5q.42-5.748-1-12 .27-3.362 2.5-1.5.91-8.807 3.5-17h3a158 158 0 0 1 4-11.5q2.412-.987 3.5 1.5 5.252-8.34 6.5 1" style="opacity:1"/><path fill="#24211b" d="M271.5 144.5q6.988-.728 4 5.5-1.926 1.026-3.5-.5a12.9 12.9 0 0 1-.5-5" style="opacity:1"/><path fill="#c5a75c" d="M313.5 153.5a10.5 10.5 0 0 1-3-2.5q-14.492-.75-29-.5 6.929-1.992 15-2l15 .5q2.41 1.574 2 4.5" style="opacity:1"/><path fill="#1f231e" d="M382.5 143.5q-1.393-2.154-3.5-4a46 46 0 0 0-6.5 11q-3.897 3.793-4.5 9a163 163 0 0 1 10.5 6q1.858-.663 3-2 1.657-1.65 4-2-1.509 1.344 0 2-2.549 2.911-6.5 4a42.4 42.4 0 0 1-10-5q-2.526.275-.5 2-2.514-1.025-2-4 .183-6.954 4-10.5-1.659-2.824 0-5.5a6.8 6.8 0 0 1 1.5 3q1.893-5.77 6-10 4.8 1.103 4.5 6" style="opacity:1"/><path fill="#14222a" d="M362.5 108.5q.926.166 1.5 1 .392 14.275 1.5 28.5-.901 6.267-4.5.5-.892 2.098.5 4-3.846 4.723-6 10h3v-4q3.634.114 5.5-3 2.919.394 2 3-4.842 3.339-7.5 8.5l1 1.5a32.4 32.4 0 0 1 5.5-4q.892 2.098-.5 4 .533 1.533 2 2-.514 2.975 2 4 4.657 4.162 7 10h-3q-.624 4.29 3 6.5-3.873 6.057-10 9.5a163 163 0 0 0-.5-18q-1.893-7.311-7.5-12a45.4 45.4 0 0 0-8-8 45 45 0 0 0 7-9 81 81 0 0 0 2.5-3q6.591-15.456 3.5-32" style="opacity:1"/><path fill="#0b2132" d="M318.5 158.5a55 55 0 0 1 5.5 4q-2.65 8.634 4.5 14 3.584 8.89-5 13-3.087 2.15-7 2v3h-34v-4h-4a364 364 0 0 1 1-37 283 283 0 0 1 31-1v3a25.4 25.4 0 0 1 8 3" style="opacity:1"/><path fill="#742734" d="M104.5 111.5q1.993 7.686 2 16.5 1.163 20.407-7 38.5a246 246 0 0 0 4-23q3.067-15.723 1-32" style="opacity:1"/><path fill="#171f1b" d="M281.5 150.5q14.508-.25 29 .5a10.5 10.5 0 0 0 3 2.5q2.959 1.96 5 5a25.4 25.4 0 0 0-8-3v-3q-15.547-.35-31 1z" style="opacity:1"/><path fill="#49525c" d="M76.5 130.5q-.47 10.882 1 21.5-2.7.476-1 2a41.6 41.6 0 0 0-3.5 9.5q-2.5-1.26-.5 1.5a86 86 0 0 0-4 4.5q6.443-19.2 8-39" style="opacity:.977"/><path fill="#dbb24b" d="M381.5 163.5q-1.142 1.337-3 2a163 163 0 0 0-10.5-6q.603-5.207 4.5-9 3.444-2.771 5.5-7 .75 9.987.5 20z" style="opacity:1"/><path fill="#cf9b34" d="M382.5 143.5q3.957 7.475 8 15-1.782 2.643-5 3-2.343.35-4 2h-3q.25-10.013-.5-20-2.056 4.229-5.5 7a46 46 0 0 1 6.5-11q2.107 1.846 3.5 4" style="opacity:1"/><path fill="#0a2131" d="M266.5 152.5q.318 2.826 3 4a307 307 0 0 1 1 35 12.9 12.9 0 0 0-5 .5q1.2 6.12 1.5 12.5 4.481 3.871 3.5 10h-9v-63q2.688-.201 5 1" style="opacity:1"/><path fill="#d0994e" d="M151.5 64.5a312 312 0 0 0-15 6 10.3 10.3 0 0 1-3-1 2481 2481 0 0 0-.5 122q12.345 2.928 25.5 2-13.227 1.49-27 1v-126a316 316 0 0 1 20-4" style="opacity:1"/><path fill="#d4a53a" d="M335.5 80.5v3q4.782.177 9 2.5 6.14 9.813-2.5 1.5a6.98 6.98 0 0 1-3.5 2.5l1 1q-5.247 2.95-10-1 3.217-1.114.5-2.5-5.723 1.591-11.5 0h-39q-.765 4.332 2 7 1.65 1.657 2 4a736 736 0 0 0 28 3 211 211 0 0 1-29 1q.53 7.467-3 1 .735-3.672-2.5-5-5.649 2.15-1.5 6 1.602 1.401 4 1 .059 2.788-2.5 4l-6-4q-.988-5.082.5-10 2.472-2.934 2-7-6.705-1.48-14-1a5651 5651 0 0 0-1 95q.002 17.031 2 33h12v-9q1.563-1.937 3.5 0-.105 5.238 2.5 9 22.741 1.742 46 .5a25.8 25.8 0 0 1 8-2q2.344-1.139 3-3.5 5.12-.839 8.5-5a69 69 0 0 0 6.5 4l2-3 1 2a319 319 0 0 0-2 5q-3.627 4.57-9 7-14.925 5.601-31 7.5-25.758.252-51 1.5h-1q-1.49 14.728-1 30h-60q-2.122-2.766-5-2l2-3-5-2a3.65 3.65 0 0 1 1-1.5 438 438 0 0 0 22-1.5h7q.156-3.305 2-6a61 61 0 0 1 11 .5q2.042 2.376 2 5.5h7q.028-4.276 1-9a6.8 6.8 0 0 0-3-1.5 53 53 0 0 1 5-10.5q-3.5-.146-6.5 3-.54-2.882-2.5-5a9.1 9.1 0 0 0 1-5q3.823.17 7-2l2 2 2-5 2 7a6.8 6.8 0 0 0 1.5-3l1 1a10.8 10.8 0 0 1 2.5-3q-8-2 0-4-1.726-1.846-3.5 0-1.11-2.728-3.5-4v-134q33.504-.25 67 .5a624 624 0 0 0 20 3.5" style="opacity:1"/><path fill="#27271b" d="M279.5 103.5q-1.812 1.1-4 1-4.149-3.85 1.5-6 3.235 1.328 2.5 5" style="opacity:1"/><path fill="#c9a14a" d="M385.5 163.5q2.2-1.188 4 0a214 214 0 0 0-10.5 14 14.7 14.7 0 0 0-3.5-3q-2.343-5.838-7-10-2.026-1.725.5-2a42.4 42.4 0 0 0 10 5q3.951-1.089 6.5-4" style="opacity:1"/><path fill="#8a773c" d="M270.5 154.5q1.995 8.944 2 19l-.5 19q-4.76 4.384-3.5 11-2.603-6.553 2-12 1.98-18.353 0-37" style="opacity:1"/><path fill="#0b2132" d="m410.5 187.5 1 2a34 34 0 0 0 1.5 8 139 139 0 0 0 7.5 11 790 790 0 0 0 20 31 77.4 77.4 0 0 0-9 12 6.55 6.55 0 0 0-3 3 650 650 0 0 1-4 57q-4.942 27.834-21 51a6.85 6.85 0 0 1-4-1 38.6 38.6 0 0 1-6 6.5l2 1q-2.567 2.153-3.5 5.5l-1-4q-.574.834-1.5 1a25.8 25.8 0 0 1 5-10l-1-2q3.786-.598 7.5-1-.505-10.332 6-18 1.34 1.817 2.5 0 1.459-5.485.5-11 1.5-2 3 0l2-2a434 434 0 0 1 6.5-19.5q.292-3.528-2-6a9.5 9.5 0 0 0 1.5-2.5 314 314 0 0 0 1.5-35 2004 2004 0 0 1-44-1 186 186 0 0 1-3 2 625 625 0 0 0-50-1 212.7 212.7 0 0 1-39-1q1.717-2.086 0-4-2.012 2.258-5 2a28.1 28.1 0 0 1-1.5 9 63 63 0 0 0-3.5-7q.149 8.298 0 16.5l-1 .5a1961 1961 0 0 0-2-15h-48a8500 8500 0 0 0-51 0h-1a625 625 0 0 0-50-1v-2q68.754.498 137-1 1.491-15.23 1-31 30.504.25 61-.5a180 180 0 0 0 9-3.5 89 89 0 0 0 11-6q5.373-2.43 9-7 10.814-9.285 14-23 6.127-3.443 10-9.5-3.624-2.21-3-6.5h3q-.07 6.222 6 4.5 2.556-3.356 3-7.5 3.63.311 7-1 1.717-1.914 0-4a76 76 0 0 0 8-5q-1.724 6.432-5 12a6.85 6.85 0 0 0 4-1l1 6q2.674-2.284 2-6h3q.843 8.349 6 15" style="opacity:1"/><path fill="#142024" d="M339.5 146.5q-2.21 1.627-2.5 4 5.865 2.86 10 8 9.825 14.772 5 32-1.758 6.537-6.5 11a13.2 13.2 0 0 1-2-5h5a97 97 0 0 0 4-17 48.5 48.5 0 0 0-4.5-15l-1 1a26.7 26.7 0 0 0-1.5-6.5q-1.866-.684-2.5 1.5a23.7 23.7 0 0 0 .5 10 43 43 0 0 0-2.5 10 69.6 69.6 0 0 0-6.5 8q.917-6.435 2-13a18 18 0 0 0 3.5-2q3.518-6.777-1.5-12h3q.393-2.217-1-4a105 105 0 0 0-8-7 39.5 39.5 0 0 0 4.5-6q.625 1.884 2.5 2" style="opacity:1"/><path fill="#b49b58" d="M96.5 160.5a82 82 0 0 0-2 10q-2.255 7.49-6 14 1.48-5.419 2.5-11a372 372 0 0 1 5.5-13" style="opacity:1"/><path fill="#1f2216" d="M266.5 152.5q-2.312-1.201-5-1v63h9q.981-6.129-3.5-10-.3-6.38-1.5-12.5a12.9 12.9 0 0 1 5-.5q-4.603 5.447-2 12 1.404 2.211 4 3v9h-12v-65q3.873-.712 6 2" style="opacity:1"/><path fill="#fefffe" d="M490.5 180.5q2 1 0 0" style="opacity:.004"/><path fill="#131e16" d="M266.5 152.5q1.657 1.65 4 2 1.98 18.647 0 37a307 307 0 0 0-1-35q-2.682-1.174-3-4" style="opacity:1"/><path fill="#191f1c" d="M246.5 74.5v141h-4v-16q2.653 5.316 2.5 12 .25-68.753 1.5-137" style="opacity:1"/><path fill="#d4a53a" d="M357.5 160.5q4.944 9.323 7 20-3.3 9.072-4 19a15.7 15.7 0 0 1-2.5 4 15 15 0 0 1-3.5-3q-.616 1.143-.5 3a15.8 15.8 0 0 0-5.5-3.5 10.8 10.8 0 0 0 3-2.5 3.65 3.65 0 0 1 1.5 1q2.12-3.228 2.5-7a4.93 4.93 0 0 0 3-.5 16.5 16.5 0 0 1-3.5-5.5l-1-16q-1.524-6.453-5.5-11.5l1-1.5q1.794.519 0 1.5 4.323.409 8 2.5" style="opacity:1"/><path fill="#a6a9b0" d="M434.5 182.5q2.11.71 2 3-2.11-.71-2-3" style="opacity:.149"/><path fill="#fefffe" d="M492.5 184.5q2 1 0 0" style="opacity:.004"/><path fill="#cca343" d="M279.5 142.5h1q6.929 1.992 15 2l15-.5a107 107 0 0 1 9-8.5q1.983.255 3.5-1 .561 1.375 1.5 2.5-2.21 1.065-2 3.5h-3v3a514 514 0 0 1-3 4 194 194 0 0 1 12 11.5q5.07.508 10 1.5v1q5.018 5.223 1.5 12a18 18 0 0 1-3.5 2 598 598 0 0 0-2 13q-1 0-1 1a101.7 101.7 0 0 1-13 11 411 411 0 0 0-40 1q-2.366-7.632 4-3 15.43-1.215 31-1.5.834-.575 1-1.5 4.391-1.885 7-6 8.584-4.11 5-13-7.15-5.366-4.5-14a55 55 0 0 0-5.5-4q-2.041-3.04-5-5 .41-2.926-2-4.5l-15-.5q-8.071.008-15 2-2.448-.487-3-3a33.7 33.7 0 0 0-2-7l-2 2-1-1q.966-14.955 2-30 1.388 1.712 2.5 0 .255 15.762 1.5 31" style="opacity:1"/><path fill="#22211b" d="M330.5 164.5q6.288-.146 4 5.5-7.184 1.267-4-5.5" style="opacity:1"/><path fill="#772632" d="M242.5 72.5a2444 2444 0 0 1 .5 121 193 193 0 0 1-27.5 1v-1a177 177 0 0 1 26-1q-.152-60.007 1-120" style="opacity:1"/><path fill="#582735" d="M91.5 191.5q19.437 2.972 40 2v1h-41q-.356-1.937 1-3" style="opacity:1"/><path fill="#222621" d="M279.5 153.5a364 364 0 0 0-1 37h4v4h34v-3q3.913.15 7-2-2.609 4.115-7 6a307 307 0 0 1-35-1 6.55 6.55 0 0 0-3-3 228.7 228.7 0 0 1-.5-37q.574-.834 1.5-1" style="opacity:1"/><path fill="#191e27" d="M102.5 117.5q1.49 12.726 1 26a246 246 0 0 1-4 23 428 428 0 0 0-8 25q-1.356 1.063-1 3h41q13.773.49 27-1h31v4h-103a52 52 0 0 0 1-7l1-6q3.745-6.51 6-14a39 39 0 0 0 2.5-5l1 2a292 292 0 0 1 1.5-15.5q.21-2.933 2.5-4.5.75-14.991.5-30" style="opacity:1"/><path fill="#232417" d="M411.5 189.5a333 333 0 0 1 9 19 139 139 0 0 1-7.5-11 34 34 0 0 1-1.5-8" style="opacity:1"/><path fill="#1c221b" d="M87.5 190.5a52 52 0 0 1-1 7h103v-3h25q.626 1.083 2 1.5 12.544 1.16 25-.5l2 1a5.58 5.58 0 0 0-1 3h-109a601 601 0 0 0-49-1v-3a29.5 29.5 0 0 0 3-5" style="opacity:1"/><path fill="#8f8354" d="M84.5 195.5v3q24.763-.495 49 1h-50q-.401-2.398 1-4" style="opacity:1"/><path fill="#383624" d="M333.5 189.5q-4.37 6.877-11 12a401 401 0 0 1-40 1l38-2a101.7 101.7 0 0 0 13-11" style="opacity:1"/><path fill="#cfad5d" d="M83.5 199.5h159v16q-1.481-7.207-1-15h-150q-4.328.46-8-1" style="opacity:1"/><path fill="#1b1f21" d="M273.5 196.5h4v5q-6.652.867-4-5" style="opacity:1"/><path fill="#d3a53a" d="M91.5 200.5h150q-.481 7.793 1 15h5q1.426-2.128 1-5 2.39 1.272 3.5 4 1.774-1.846 3.5 0-8 2 0 4a10.8 10.8 0 0 0-2.5 3l-1-1a6.8 6.8 0 0 1-1.5 3l-2-7-2 5-2-2q-3.177 2.17-7 2a9.1 9.1 0 0 1-1 5q1.96 2.118 2.5 5 3-3.146 6.5-3a53 53 0 0 0-5 10.5 6.8 6.8 0 0 1 3 1.5q-.972 4.724-1 9a1307 1307 0 0 0-11-31.5q-4.09-1.227-8 .5a111 111 0 0 0-5 16l-2 3q.238-4.03-2.5-7a6.55 6.55 0 0 0-3 3l-1-1a20.2 20.2 0 0 1-1.5 6q-3.136-1.936-4 2-1.783 1.393-4 1-.255-1.983 1-3.5-2.487-1.088-1.5-3.5 6.164.043 5.5-6 8-.5 0-1v-3h4v-7q-7.948-.76-15.5-4-6.676 1.793-12.5 5-10.104-3.084-20-1-2.323 4.866-4 10.5.207 6.293 0 12.5-2.5-.5-3-3a95 95 0 0 1-2-7.5q.214-3.227 3-5-3.423-3.706-8-5.5v-3q-6.811-.672-13 2a7.3 7.3 0 0 1-3-2 6.85 6.85 0 0 0 1-4q6.498.895 13 .5-1.255-1.517-1-3.5a16.9 16.9 0 0 1-8-1q3.7-4.18-2.5-5a175 175 0 0 1-9.5 4.5l7 3q-3.464 3.076-6.5-.5-2.589 1.614-5.5.5l1-1-2.5-.5a29 29 0 0 1-7.5 3 88.4 88.4 0 0 0-14 0l-1 1a26 26 0 0 0 5 3q-2.729 7.202-2 15-1.762.329-3-1 5.184-7.92-4-10 .012-8.562-1.5-1-1.476-3.442-2.5 1 1.783 1.393 4 1 .329 6.04-3.5 2-.854 5.791-2.5 0l-2 8-1-4a44.3 44.3 0 0 0 1.5-12q-2.028 7.803-3.5 0l-1 .5q1.942 5.763-.5 11.5a13.76 13.76 0 0 0-2.5-5.5q2.808-2.961 1-6.5a22.6 22.6 0 0 1-4 8l-1-1.5q2.73-3.862 1-8 4.131-2.37-.5-3.5-3.298 1.718-6.5 0 2.855.584 5-2.5-1.659-2.823 0-5.5-.587 2.087 2.5 3 2.461-5.735 8.5-6-.369 4.455-5 4 .255 1.983-1 3.5 3.436 2.815 6-.5 2.749 3.685 5 0-1.783-1.393-4-1v-4q3.351-.18 6.5 1 1.545-.504 1.5-2" style="opacity:1"/><path fill="#2d3a46" d="M436.5 186.5a286 286 0 0 0 21 33q-2.217.393-4-1l-7-10q-1.237-1.329-3-1 .507-3.985-2-7a3.65 3.65 0 0 1 1-1.5q-1.866-.684-2.5 1.5a12.4 12.4 0 0 1-4.5-5q3.423-4.131 1-9" style="opacity:1"/><path fill="#0a2132" d="M345.5 201.5q-4.105 5.612-10 9a24.16 24.16 0 0 1-11 3 580 580 0 0 1-45 1v-8l3-4q20.025.499 40-1 6.63-5.123 11-12 0-1 1-1a69.6 69.6 0 0 1 6.5-8 43 43 0 0 1 2.5-10 23.7 23.7 0 0 1-.5-10q.634-2.184 2.5-1.5a26.7 26.7 0 0 1 1.5 6.5l1-1a48.5 48.5 0 0 1 4.5 15 97 97 0 0 1-4 17h-5a13.2 13.2 0 0 0 2 5" style="opacity:1"/><path fill="#d1a43e" d="m92.5 84.5 2 2v4a21.1 21.1 0 0 0 1 9 53 53 0 0 1 3 8l2 2q1.292 25.815-4 51a372 372 0 0 0-5.5 13 132 132 0 0 1-2.5 11l-1 6a29.5 29.5 0 0 1-3 5q-1.401 1.602-1 4 3.672 1.46 8 1 .045 1.496-1.5 2a15.9 15.9 0 0 0-6.5-1v4q2.217-.393 4 1-2.251 3.685-5 0-2.564 3.315-6 .5 1.255-1.517 1-3.5 4.631.455 5-4-6.039.265-8.5 6-3.087-.913-2.5-3-1.659 2.677 0 5.5-2.145 3.084-5 2.5 3.202 1.718 6.5 0 4.631 1.13.5 3.5 1.73 4.138-1 8l1 1.5a22.6 22.6 0 0 0 4-8q1.808 3.539-1 6.5a13.76 13.76 0 0 1 2.5 5.5q2.442-5.737.5-11.5l1-.5q1.472 7.803 3.5 0 .081 6.045-1.5 12l1 4 2-8q1.646 5.791 2.5 0 3.829 4.04 3.5-2-2.217.393-4-1 1.024-4.442 2.5-1 1.512-7.562 1.5 1 9.184 2.08 4 10 1.238 1.329 3 1-.729-7.798 2-15a26 26 0 0 1-5-3l1-1q6.888-.555 14 0a29 29 0 0 0 7.5-3l2.5.5-1 1q2.911 1.114 5.5-.5 3.036 3.576 6.5.5l-7-3a175 175 0 0 0 9.5-4.5q6.2.82 2.5 5a16.9 16.9 0 0 0 8 1q-.255 1.983 1 3.5a66 66 0 0 1-13-.5 6.85 6.85 0 0 1-1 4 7.3 7.3 0 0 0 3 2q6.189-2.672 13-2v3q4.577 1.794 8 5.5-2.786 1.773-3 5a95 95 0 0 0 2 7.5q.5 2.5 3 3 .207-6.207 0-12.5 1.677-5.634 4-10.5 9.896-2.084 20 1 5.824-3.207 12.5-5 7.552 3.24 15.5 4-28.325-1.784-20 25 0 1 1 1 1.86 3.732 6 5.5 5.582 1.017 11-.5 1.494.129 2.5-1a12.5 12.5 0 0 0 0-7q-2.113 1.922-4.5 3-6.44 1.446-9.5-4-1.551-7.436 1.5-14 3.801-3.139 8-1v3q8 .5 0 1 .664 6.043-5.5 6-.987 2.412 1.5 3.5-1.255 1.517-1 3.5 2.217.393 4-1 .864-3.936 4-2a20.2 20.2 0 0 0 1.5-6l1 1a6.55 6.55 0 0 1 3-3q2.738 2.97 2.5 7a79 79 0 0 1-3 12 438 438 0 0 1-22 1.5 3.65 3.65 0 0 0-1 1.5l5 2-2 3q2.878-.766 5 2-64.502-.25-129 .5a237.4 237.4 0 0 0-.5 37.5q4.222 13.815 3.5 28 1.23 2.417 4 2 2.983 8.855 2 18 1.948-.885 2.5-3a139 139 0 0 0 7.5 11q17.104 27.855 45 45.5l27 13.5q1.095 1.818 3 3a3.65 3.65 0 0 1-1 1.5q7.065.563 14 2a11.14 11.14 0 0 1-5.5 3.5q-.987 2.412 1.5 3.5-2.5 1-5 0l1-1a52 52 0 0 1-7.5-3.5q-2.395 2.077-5.5 2a144.5 144.5 0 0 1-18-7q-54.147-29.257-73-88a436 436 0 0 1-6-25q-1.05-23.98-1.5-48a61.5 61.5 0 0 1-6.5-8q-3.36-5.376-8-10 2.178-2.16 3-5a330 330 0 0 0 26.5-41q9.252-19.018 12.5-40 1.083-.627 1.5-2 3.48-25.671-1.5-51a53.8 53.8 0 0 1-2-16h4a27.2 27.2 0 0 0-2-5.5q-.01-2.718 2-4.5 2.248 6.496 6 12" style="opacity:1"/><path fill="#1a1d12" d="M279.5 206.5v8a580 580 0 0 0 45-1q-.626 1.083-2 1.5-21.995.75-44 .5-.465-4.82 1-9" style="opacity:1"/><path fill="#bfa35b" d="M335.5 210.5q-.656 2.361-3 3.5a25.8 25.8 0 0 0-8 2q-23.259 1.242-46-.5 22.005.25 44-.5 1.374-.417 2-1.5a24.16 24.16 0 0 0 11-3" style="opacity:1"/><path fill="#092030" d="M121.5 233.5h1q2.395 4.228 1.5 9a6.8 6.8 0 0 0-1.5-3 9.86 9.86 0 0 0-1 6h-3q1.082-4.976.5-10-6.218-1.718-1-6 1-3 0-6-5.401-1.98-10.5 0v7q2.288 2.304 6 3a169 169 0 0 0-6 2v8a346 346 0 0 0 8 2 7.25 7.25 0 0 1-2 2.5 72.4 72.4 0 0 1-12 .5v-3q1.019-13.102 2-26.5 8.889-1.666 17 2 1.827 2.157 2 5-1.476 1.686-2 4.5.03 1.839 1 3" style="opacity:1"/><path fill="#74777e" d="M37.5 223.5q-1.46 3.952-5 6 1.415-3.913 5-6" style="opacity:.314"/><path fill="#181c16" d="M121.5 233.5q-.97-1.161-1-3 .524-2.814 2-4.5-.173-2.843-2-5-8.111-3.666-17-2a5922 5922 0 0 1-2 26.5v-28q10.832-.921 21 2.5 2.021 2.36 2 5.5-.696 4.376-3 8" style="opacity:1"/><path fill="#caa64d" d="M107.5 223.5a41 41 0 0 1 9 .5q2.153 3.4-1 6a32.5 32.5 0 0 1-8 .5z" style="opacity:1"/><path fill="#fefffe" d="M494.5 226.5q2 1 0 0" style="opacity:.004"/><path fill="#b99a51" d="M342.5 220.5a89 89 0 0 1-11 6 55 55 0 0 0-12 2.5q-29.496.75-59 .5a1288 1288 0 0 1 51-1.5q16.075-1.899 31-7.5" style="opacity:1"/><path fill="#16180b" d="M331.5 226.5a180 180 0 0 1-9 3.5q-30.496.75-61 .5.491 15.77-1 31v-32q29.504.25 59-.5a55 55 0 0 1 12-2.5" style="opacity:1"/><path fill="#13202a" d="M147.5 219.5q4.494 14.991 9 30h-7l-1-6a72.4 72.4 0 0 0-12 .5l-2 5q-3.465.745-7 .5a5294 5294 0 0 1 10.5-31q5.14-2.265 9.5 1" style="opacity:1"/><path fill="#ae964d" d="M141.5 226.5q2.186 2.613 3.5 6a12.9 12.9 0 0 1 .5 5h-7q1.05-5.606 3-11" style="opacity:1"/><path fill="#0a1f32" d="M190.5 243.5q-1 0-1-1-2.046-7.049.5-14a18 18 0 0 1 3.5-2q-.792 8.088 2 16a4.46 4.46 0 0 1-1.5 2q-1.517-1.255-3.5-1" style="opacity:1"/><path fill="#776b38" d="M107.5 235.5q4.328-.46 8 1h-7v7h-1z" style="opacity:1"/><path fill="#b39b58" d="M45.5 232.5q-.822 2.84-3 5 4.64 4.624 8 10l-3-2q-3.465-3.97-7-8 1.55-3.511 5-5" style="opacity:1"/><path fill="#fefffe" d="M23.5 237.5q2 1 0 0" style="opacity:.004"/><path fill="#cfa647" d="M115.5 236.5q1.79.705 2 3l-1 3a19.4 19.4 0 0 1-8 1v-7z" style="opacity:1"/><path fill="#142128" d="M242.5 249.5h-7q.042-3.124-2-5.5a61 61 0 0 0-11-.5 22.2 22.2 0 0 1-6 3v-5h3a51.6 51.6 0 0 0-1-7 111 111 0 0 1 5-16q3.91-1.727 8-.5a1307 1307 0 0 1 11 31.5" style="opacity:1"/><path fill="#b49452" d="M227.5 226.5q.925.166 1.5 1a61 61 0 0 0 2.5 10h-7a72 72 0 0 1 3-11" style="opacity:1"/><path fill="#1b231d" d="M218.5 234.5a51.6 51.6 0 0 1 1 7h-3v5a22.2 22.2 0 0 0 6-3q-1.844 2.695-2 6h-7a79 79 0 0 0 3-12z" style="opacity:1"/><path fill="#122433" d="m157.5 29.5-1.5 3q-.981-1.794-1.5 0a22.5 22.5 0 0 1 3 4 10.4 10.4 0 0 0 5-3 15.7 15.7 0 0 0 4 2.5q-1.926 1.026-3.5-.5a4.93 4.93 0 0 0-.5 3q-4.692 1.06-8 4a202 202 0 0 0-19 5.5 705 705 0 0 1-30.5 2.5q-12.78-.89-25.5-2-3.534-1.613-7 0a37 37 0 0 0-4 7q-3.05 1.572-4 5 11.155 13.313 16 30a76 76 0 0 0 3.5 16l1.5 16.5a994 994 0 0 0-1 28.5q-3.248 20.982-12.5 40a330 330 0 0 1-26.5 41q-3.45 1.489-5 5 3.535 4.03 7 8a20.7 20.7 0 0 1 1 5q1.983-.255 3.5 1 3.906 8.463 1.5 17.5a196 196 0 0 1 2.5 27.5q.234 4.036 2.5 7a57.3 57.3 0 0 0 1.5 15q1.108 5.701 4.5 10 18.853 58.743 73 88 .797 3.186 4 4.5-4.208.663-8-1.5l-2 .5q1.817 1.34 0 2.5a19.2 19.2 0 0 1-6.5-3q-1.148.105-1.5 1-2.802-1.144-5-3-.71-2.11-3-2-55.705-37.374-66-104 .31-4.493-2-8v-5q.186-8.353-2-16 .25-11.511-.5-23a607 607 0 0 1-19.5-22q2.46-4.956 7-8 3.54-2.048 5-6 20.137-24.265 31-54a86 86 0 0 1 4-4.5q-2-2.76.5-1.5a41.6 41.6 0 0 1 3.5-9.5q-1.7-1.524 1-2a119 119 0 0 1-1-21.5q-.352-35.553-21-64 .11-2.29-2-3-3.6-3.12-.5-7A262 262 0 0 1 69.5 35a191.6 191.6 0 0 0 29 5q30.992 2.61 59-10.5" style="opacity:1"/><path fill="#192221" d="M209.5 217.5v7h-4q-4.199-2.139-8 1-3.051 6.564-1.5 14 3.06 5.446 9.5 4h3q.201 2.688-1 5-5.418 1.517-11 .5-4.14-1.768-6-5.5 1.983-.255 3.5 1a4.46 4.46 0 0 0 1.5-2q-2.792-7.912-2-16a18 18 0 0 0-3.5 2q-2.546 6.951-.5 14-8.325-26.784 20-25" style="opacity:1"/><path fill="#0a2031" d="M197.5 225.5q-2.544-.278-4-2.5 6.084-6.149 15-4.5v4a50.5 50.5 0 0 0-10 .5q-1.129 1.006-1 2.5" style="opacity:1"/><path fill="#142029" d="M161.5 217.5q9.765-.645 19 2.5 6.59 9.529-2 17.5a201 201 0 0 0 7 11.5q-4.09 1.227-8-.5l-5.5-9q-2.034-1.32-4.5-1v11h-6z" style="opacity:1"/><path fill="#4b4224" d="M168.5 223.5v9q3.675.303 7-1-3.203 2.804-8 2-.469-5.313 1-10" style="opacity:1"/><path fill="#caa955" d="M168.5 223.5q11.278-2.24 7 8-3.325 1.303-7 1z" style="opacity:1"/><path fill="#302913" d="M207.5 248.5q1.201-2.312 1-5h-3q2.387-1.078 4.5-3a12.5 12.5 0 0 1 0 7q-1.006 1.129-2.5 1" style="opacity:1"/><path fill="#1d2522" d="M107.5 223.5q5.099-1.98 10.5 0 1 3 0 6-5.218 4.282 1 6a30.3 30.3 0 0 1-.5 10h3a9.86 9.86 0 0 1 1-6 6.8 6.8 0 0 1 1.5 3q.895-4.772-1.5-9 6.658 8.152-2 14.5-9.666 2.504-19 .5a72.4 72.4 0 0 0 12-.5 7.25 7.25 0 0 0 2-2.5 346 346 0 0 1-8-2h1a19.4 19.4 0 0 0 8-1l1-3q-.21-2.295-2-3-3.672-1.46-8-1a169 169 0 0 1 6-2q-3.712-.696-6-3a32.5 32.5 0 0 0 8-.5q3.153-2.6 1-6a41 41 0 0 0-9-.5" style="opacity:1"/><path fill="#fefffe" d="M476.5 250.5q2 1 0 0M487.5 258.5q2 1 0 0" style="opacity:.004"/><path fill="#cda851" d="M259.5 229.5v31h-184q-2.872-.426-5 1-1.686 32.77 6.5 65 2.836 6.65 5.5 13a77.4 77.4 0 0 0 6 14 139 139 0 0 1-7.5-11q-.552 2.115-2.5 3 .983-9.145-2-18-2.77.417-4-2 .722-14.185-3.5-28a237.4 237.4 0 0 1 .5-37.5q64.498-.75 129-.5h60q-.49-15.272 1-30" style="opacity:1"/><path fill="#7e6b31" d="M259.5 229.5h1v32a8560 8560 0 0 1-185-1h184z" style="opacity:1"/><path fill="#0e190e" d="M75.5 260.5a8560 8560 0 0 0 185 1 4692 4692 0 0 1-137 1h-52q.401 2.398-1 4v-5q2.128-1.426 5-1" style="opacity:1"/><path fill="#0d2741" d="M120.5 262.5h3v123q-2.352-2.053-5.5-3a26.7 26.7 0 0 0-1.5-7l-2 1a51.5 51.5 0 0 1-8-7q-1.12-12.6-13-16v-5h-3a1977 1977 0 0 0-11.5-33q-3.23-11.148.5-22h-4q-.237-4.292 2-8a475 475 0 0 0-4-19.5q1.4-4.731 2 .5 22.98-.905 46-2a44 44 0 0 1-1-2" style="opacity:1"/><path fill="#732a36" d="M225.5 265.5h48v20q-2.48-.24-4-2h3v-17h-46a73 73 0 0 0 1 17q11.433-4.932 24-4a64.8 64.8 0 0 1 15 1.5q1.129 1.006 1 2.5-21.707-6.987-42 3-1.965-10.649 0-21" style="opacity:1"/><path fill="#0c2741" d="M389.5 371.5q-5.025 1.793-3 6.5-2.098.892-4-.5a10.3 10.3 0 0 0-1.5 4q-5.306 1.714-3.5 6.5-1.405 1.038-2-.5v-122q1.473-.961 3-2 21.957.74 44 1a314 314 0 0 1-1.5 35 9.5 9.5 0 0 1-1.5 2.5q2.292 2.472 2 6a434 434 0 0 0-6.5 19.5l-2 2q-1.5-2-3 0 .959 5.515-.5 11-1.16 1.817-2.5 0-6.505 7.668-6 18-3.714.402-7.5 1l1 2a25.8 25.8 0 0 0-5 10" style="opacity:1"/><path fill="#1e2727" d="m47.5 245.5 3 2a61.5 61.5 0 0 0 6.5 8q.45 24.02 1.5 48-2.266-2.964-2.5-7a196 196 0 0 0-2.5-27.5q2.406-9.037-1.5-17.5-1.517-1.255-3.5-1a20.7 20.7 0 0 0-1-5" style="opacity:1"/><path fill="#86222a" d="M124.5 266.5h48v142h-4q-23.867-6.45-43-22a3663 3663 0 0 1-1-120" style="opacity:1"/><path fill="#86212a" d="M269.5 283.5h-2q.129-1.494-1-2.5a64.8 64.8 0 0 0-15-1.5q-12.567-.932-24 4a73 73 0 0 1-1-17h46v17z" style="opacity:1"/><path fill="#0e2740" d="M325.5 264.5v42q-9.395-4.592-20-3.5-2.965 4.494-6.5.5l-3 2-7-7q-.908 2.972-3 1-.315-4.101-2.5-7.5-3.781 1.095-8 1.5-3.75-3.447-2-8v-20q1 7.274 2 15l1-.5q.149-8.202 0-16.5a63 63 0 0 1 3.5 7 28.1 28.1 0 0 0 1.5-9q2.988.258 5-2 1.717 1.914 0 4a212.7 212.7 0 0 0 39 1" style="opacity:1"/><path fill="#86222a" d="M358.5 396.5q-15.444 9.32-33 14v-1q-.25-17.008.5-34 17.595-9.122 20-29a67.2 67.2 0 0 0-.5-18q-3.743-15.226-18-21a432 432 0 0 1-1-41h46q.465 60.536-1 121-7.148-1.3-10.5 5-3.901-5.907-7.5 0a20.2 20.2 0 0 0 6 1.5q-1.129 1.006-1 2.5" style="opacity:1"/><path fill="#161f2b" d="M267.5 283.5h2q1.52 1.76 4 2-1.75 4.553 2 8a106 106 0 0 1-11-5q-.166-.926-1-1.5-14.893-3.236-29.5.5l-1-2a28 28 0 0 1-1.5 4 53 53 0 0 0-9 4.5q-1.984 1.224-2 3.5h-1q-.276-5.369 2-10 2.398.401 4-1 20.293-9.987 42-3" style="opacity:1"/><path fill="#3b283b" d="M173.5 265.5h1q.492 73.108-1 146-2.975.514-4-2h4z" style="opacity:1"/><path fill="#caa754" d="M431.5 251.5a1164 1164 0 0 0-1.5 46 945 945 0 0 1-3.5 10 412 412 0 0 0 2-53 6.55 6.55 0 0 1 3-3" style="opacity:1"/><path fill="#c09f52" d="M441.5 255.5q.185 23.02-1 46-2.29 5.65-3 12-.098 4.392-2 8a1465 1465 0 0 0 6-66" style="opacity:1"/><path fill="#a3a5a8" d="M45.5 282.5q2.186 7.647 2 16-1.96-7.674-2-16" style="opacity:.043"/><path fill="#262618" d="M428.5 254.5q.705 26.61-2 53v1l-2 3a650 650 0 0 0 4-57" style="opacity:1"/><path fill="#232720" d="M70.5 261.5v5a287.6 287.6 0 0 0 7.5 59q1.065 2.21 3.5 2a55 55 0 0 1 1 12 2303 2303 0 0 0-5.5-13q-8.186-32.23-6.5-65" style="opacity:1"/><path fill="#d0a43f" d="M264.5 288.5a106 106 0 0 0 11 5 118 118 0 0 1 14 12q3.735 6.466 7.5 13 3.516 10.726 2 22-12.21-23.708-35.5-36.5-7.96-2.358-16-1l-3.5-3.5a35.1 35.1 0 0 1 1.5-13 83.6 83.6 0 0 1 19 2" style="opacity:1"/><path fill="#fefffe" d="M32.5 304.5q2 1 0 0" style="opacity:.004"/><path fill="#33341e" d="M440.5 301.5q.288 6.603-3 12 .71-6.35 3-12" style="opacity:1"/><path fill="#9fa4aa" d="M47.5 303.5q2.31 3.507 2 8-1.902-3.608-2-8" style="opacity:.208"/><path fill="#782a35" d="M325.5 265.5h48q.25 61.002-.5 122-1.075.816-1.5 2a121 121 0 0 1-13 7q-.129-1.494 1-2.5a20.2 20.2 0 0 1-6-1.5q3.599-5.907 7.5 0 3.352-6.3 10.5-5 1.465-60.464 1-121h-46a432 432 0 0 0 1 41q-1.488.258-2-1z" style="opacity:1"/><path fill="#22251b" d="M58.5 303.5a436 436 0 0 0 6 25q-3.392-4.299-4.5-10a57.3 57.3 0 0 1-1.5-15" style="opacity:1"/><path fill="#909598" d="M449.5 310.5q-.332 3.851-2 7-.494-4.092 2-7" style="opacity:.435"/><path fill="#682a35" d="M327.5 307.5q14.257 5.774 18 21-5.849-13.196-18-21" style="opacity:1"/><path fill="#49555b" d="M447.5 319.5a107 107 0 0 1-4 14q-1.14-8.11 4-14" style="opacity:1"/><path fill="#2e2235" d="M325.5 265.5v-1q25.262-.495 50 1v122q-1.657 1.65-4 2 .425-1.184 1.5-2 .75-60.998.5-122z" style="opacity:1"/><path fill="#0f212f" d="M120.5 262.5q.456.975 1 2-23.02 1.095-46 2-.6-5.231-2-.5a475 475 0 0 1 4 19.5q-2.237 3.708-2 8h4q-3.73 10.852-.5 22a1977 1977 0 0 1 11.5 33h3v5q11.88 3.4 13 16a51.5 51.5 0 0 0 8 7l2-1a26.7 26.7 0 0 1 1.5 7q3.148.947 5.5 3l2 1q19.133 15.55 43 22 0 1 1 1 1.025 2.514 4 2v1h-13l-27-13.5q-27.896-17.645-45-45.5a77.4 77.4 0 0 1-6-14 55 55 0 0 0-1-12q-2.435.21-3.5-2a287.6 287.6 0 0 1-7.5-59q1.401-1.602 1-4z" style="opacity:1"/><path fill="#1c221f" d="M264.5 288.5a83.6 83.6 0 0 0-19-2 35.1 35.1 0 0 0-1.5 13l3.5 3.5q8.04-1.358 16 1 23.29 12.792 35.5 36.5 1.516-11.274-2-22-3.765-6.534-7.5-13h4q-.507 3.985 2 7 .962-2.24 3-3l2 5a10.2 10.2 0 0 1 3 3q-1.044 4.442 1.5 9 2.586 18.688-5.5 35.5 1.416 2.216 4 3 4.473.747 9 .5 3.297-.137 1 2a67.2 67.2 0 0 1-15-1q-3.756.975-4 5-3.067-6.05 3.5-8 1.277-3.83-1-7-.348 1.856-1.5 3a83 83 0 0 0 3-12.5q-9.955-22.97-31-37a43 43 0 0 0-5-1.5q-.626-1.083-2-1.5a30.5 30.5 0 0 0-11 0q-3.311 1.57-5 4.5-4.656 3.202-4 9-.656 5.798 4 9 3.218 4.651 8 1.5 12.514-1.992 18 9.5 1.262 2.819 1 6 4.602.07 9 1.5a17.34 17.34 0 0 0 7 3.5 34.5 34.5 0 0 1 6 8q-2.554-1.74-2 2-7.122-10.6-20-11-1.545 7.59-7 13-18.356 14.408-42 16.5 1.116 1.558 3 1.5a9.8 9.8 0 0 0 4 3l-9-2a6.85 6.85 0 0 1 1-4 20.2 20.2 0 0 1 6-1.5q-7.17.162-13-2.5 21 1.915 40-7.5 8.317-5.817 13.5-14.5 2.952-17.53-14.5-17.5a11.3 11.3 0 0 0-3.5 1.5q-4.565 18.67-23.5 14-8.9 8.461-21 10-.9-2.1-3-3 12.304.502 19-9.5-8.106-11.883-7-26.5.279-7.03 1-14v-2q2.136-3.022 2-7 1.487.258 2-1h1a154 154 0 0 0-2 16q-2.281 12.462 1.5 25 1.046 3.126 3.5 5 7.314 8.295 17 2.5 9.781-7.515 0-14.5-8.982-14.171 3-26-.803-2.641-3-4a46.8 46.8 0 0 1 1-13l-3-1a29.9 29.9 0 0 0-7 2 28 28 0 0 0 1.5-4l1 2q14.607-3.736 29.5-.5.834.574 1 1.5" style="opacity:1"/><path fill="#d4a53b" d="M240.5 301.5a5.58 5.58 0 0 0 1 3l-2 1q-3.219-2.09-7-2 .423 4.657 3 8.5.208 7.766-5 13 1.695 8.73 4.5.5 4.098 4.445.5 9 2.851 2.153 1 5-3.466-2.191-7-1l1 2 8 2a6.85 6.85 0 0 0-1 4 32.5 32.5 0 0 1-8-.5 13.5 13.5 0 0 0-6-2.5q-6.585-14.238-5-30a154 154 0 0 1 2-16q.016-2.276 2-3.5a53 53 0 0 1 9-4.5 29.9 29.9 0 0 1 7-2l3 1a46.8 46.8 0 0 0-1 13" style="opacity:1"/><path fill="#fefffe" d="M459.5 337.5q2 1 0 0" style="opacity:.004"/><path fill="#caa344" d="M426.5 308.5q.473 7.002-2 13.5 2.812 5.944-2 10a113 113 0 0 1 5.5 8.5 74.3 74.3 0 0 0 5-16 81 81 0 0 1 2.5-3 243 243 0 0 1-9 29l-2 1q-.402-3.928 1-7.5-2.09-1.756-2.5-4.5-1.512.723-3.5.5-8.634 7.9-6.5 19.5-.865-3.936-4-2 .58 3.226 2 6-2.349.841-4-2-.76 2.244 1.5 3.5-2.412.987-3.5-1.5-1.062 1.321-2.5 2a5.73 5.73 0 0 1 1-3q16.058-23.166 21-51z" style="opacity:1"/><path fill="#772c39" d="M124.5 266.5a601 601 0 0 1 49-1v144h-4q-1 0-1-1h4v-142z" style="opacity:1"/><path fill="#5e2733" d="M123.5 264.5q25.262-.495 50 1a601 601 0 0 0-49 1q-.483 60.064 1 120l-2-1z" style="opacity:1"/><path fill="#0d2741" d="M225.5 265.5q-1.965 10.351 0 21-1.602 1.401-4 1-2.276 4.631-2 10-.513 1.258-2 1 .428-2.682-1-5a9.1 9.1 0 0 1-5 1q-3.978 5.023-7 11-2.889.841-6 .5l-2.5 2.5q1.957 6.698 2.5 14l-.5 6a14.7 14.7 0 0 0-1.5-5q-3.587 2.799-3 7.5.235 10.127.5 20.5 4.046 6.543.5 13 10.316 1.043 13.5 11a21.8 21.8 0 0 0 6.5 4.5q-2.21 1.064-2 3.5 3.481.406 6-2a8.2 8.2 0 0 0 4 2.5 19.6 19.6 0 0 0 2 3.5q-.492 16.27 1 32v2q-3.357 1.555-7 .5l5-1q-4.593-1.112-9 .5-6.859-2.875-14-1a3449 3449 0 0 0-20-4.5q-4.204-.923-7-3.5v-1a5367 5367 0 0 0 1-146q25.833-.077 51 0" style="opacity:1"/><path fill="#fefffe" d="M477.5 366.5q2 1 0 0M11.5 368.5q2 1 0 0M461.5 372.5q2 1 0 0" style="opacity:.004"/><path fill="#192225" d="m421.5 358.5-2 9h3a8.4 8.4 0 0 1-.5 4 32.4 32.4 0 0 1-4.5-3q-1.233 6.415-6 12a11.4 11.4 0 0 1-2.5 2q-1.077-1.426-2.5-.5a38.2 38.2 0 0 1-9.5 9.5q.394 2.176-.5 4a3.65 3.65 0 0 1-1.5-1q-1.573 2.41-4.5 2 17.811-17.292 31-38" style="opacity:1"/><path fill="#13212d" d="M325.5 306.5q.512 1.258 2 1 12.151 7.804 18 21a67.2 67.2 0 0 1 .5 18q-2.405 19.878-20 29a578 578 0 0 0-.5 34 1308 1308 0 0 1-2-32q-7.795 2.547-16 1.5a25.8 25.8 0 0 1 8-2 113 113 0 0 0-15-.5q.329 1.763-1 3a26.6 26.6 0 0 1-2-3.5 16.24 16.24 0 0 0-8 0q-2.289 2.83-6 3-1.255 3.883-5 5.5-2.012-2.258-5-2v5a66 66 0 0 1-7 3q-14.46 2.936-29 1a31.6 31.6 0 0 1-10-3q-1.063-1.356-3-1a19.6 19.6 0 0 1-2-3.5 8.2 8.2 0 0 1-4-2.5q-2.519 2.406-6 2-.21-2.436 2-3.5a21.8 21.8 0 0 1-6.5-4.5q-3.184-9.957-13.5-11 3.546-6.457-.5-13-.265-10.373-.5-20.5-.587-4.701 3-7.5a14.7 14.7 0 0 1 1.5 5l.5-6q-.543-7.302-2.5-14l2.5-2.5q3.111.341 6-.5 3.022-5.977 7-11a9.1 9.1 0 0 0 5-1q1.428 2.318 1 5-5.9 3.147-9.5 9-12.345 20.15-8 44a39.5 39.5 0 0 1 2.5 5v1q2.1.9 3 3a8.4 8.4 0 0 0 .5 4q3.275 3.61 6.5 7l2 3q5.83 2.662 13 2.5a20.2 20.2 0 0 0-6 1.5 6.85 6.85 0 0 0-1 4l9 2q33.183 10.68 57.5-14a14.5 14.5 0 0 1 4-5 8.4 8.4 0 0 0 .5-4q-.554-3.74 2-2h2q1.152-1.144 1.5-3 2.277 3.17 1 7-6.567 1.95-3.5 8 21.406 8.961 38.5-7 4.092-6.184 6.5-13 4.79-14.187-3-27a36.6 36.6 0 0 0-4-6.5q-5.328-4.91-12-7.5-10.82-5.212-22-1-2.038.76-3 3-2.507-3.015-2-7h-4a118 118 0 0 0-14-12q4.219-.405 8-1.5 2.185 3.399 2.5 7.5 2.092 1.972 3-1l7 7 3-2q3.535 3.994 6.5-.5 10.605-1.092 20 3.5" style="opacity:1"/><path fill="#cda444" d="M320.5 310.5q6.672 2.59 12 7.5a36.6 36.6 0 0 1 4 6.5q-.06 4.387 2.5 8 .75 9.487.5 19-2.408 6.816-6.5 13-17.094 15.961-38.5 7 .244-4.025 4-5a67.2 67.2 0 0 0 15 1q23.917-7.808 20.5-33-5.29-16.044-21.5-20-5.216-1.234-11-1.5-1.255-1.517-1-3.5 10.02.168 20 1" style="opacity:1"/><path fill="#cba446" d="M291.5 361.5a8.4 8.4 0 0 1-.5 4 14.5 14.5 0 0 0-4 5q-24.317 24.68-57.5 14a9.8 9.8 0 0 1-4-3q-1.884.058-3-1.5 23.644-2.092 42-16.5 5.455-5.41 7-13 12.878.4 20 11" style="opacity:1"/><path fill="#d4a439" d="M264.5 363.5a2.43 2.43 0 0 0 2-.5 160 160 0 0 0 7.5-8.5q2.5 2 5 0a51 51 0 0 0 10 6 12.9 12.9 0 0 1 .5 5q-3.616-.544-4.5 3l-1-1q-1.904 2.107-1.5 5-5.018-.261-3.5 4-1.517-1.255-3.5-1-.044 4.733-5 5-3.338-5.649 1-9.5-4.336-2.88-7-7.5" style="opacity:1"/><path fill="#cea341" d="m214.5 374.5-2-3a401 401 0 0 1-6.5-7 8.4 8.4 0 0 1-.5-4q12.1-1.539 21-10 18.935 4.67 23.5-14a11.3 11.3 0 0 1 3.5-1.5q17.452-.03 14.5 17.5-5.183 8.683-13.5 14.5-19 9.415-40 7.5" style="opacity:1"/><path fill="#d4a539" d="M212.5 371.5a9.1 9.1 0 0 0-1-5 10.4 10.4 0 0 0 3-5 123 123 0 0 1 9-6q1.329-1.237 1-3 11.064.338 22-1v-3a61.6 61.6 0 0 1 10 2q-.548 2.103-2.5 3-6.287-1.774-11 3a13.1 13.1 0 0 0-1.5 6q3.643 2.033 4 5-2.453 1.771-5 0a23.6 23.6 0 0 0-1 3.5 144 144 0 0 0-14 3q-4.581 1.232-9-.5 2.683-1.684 1-4-2.013 2.258-5 2" style="opacity:1"/><path fill="#c1a04f" d="M215.5 307.5a221 221 0 0 0-1 14q-1.106 14.617 7 26.5-6.696 10.002-19 9.5v-1q8.364-1.081 12-4-.18-4.058 3-2l1-2q-7.357-17.192-5.5-36 .56-2.987 2.5-5" style="opacity:1"/><path fill="#b08931" d="M303.5 317.5q29.442-1.308 28.5 28-4.023 15.771-19.5 20a41 41 0 0 1-9-.5q-2.584-.784-4-3 8.086-16.812 5.5-35.5-2.544-4.558-1.5-9" style="opacity:1"/><path fill="#b99f55" d="M270.5 340.5q2.634 1.578 2 5 7.42.133 14 3.5 1.129 1.006 1 2.5a17.34 17.34 0 0 1-7-3.5 30.5 30.5 0 0 0-9-1.5q.262-3.181-1-6" style="opacity:1"/><path fill="#272513" d="M300.5 314.5h12q16.21 3.956 21.5 20 3.417 25.192-20.5 33 2.297-2.137-1-2 15.477-4.229 19.5-20 .942-29.308-28.5-28a10.2 10.2 0 0 0-3-3" style="opacity:1"/><path fill="#b09650" d="M336.5 324.5q7.79 12.813 3 27 .25-9.513-.5-19-2.56-3.613-2.5-8" style="opacity:1"/><path fill="#bc9f50" d="M217.5 298.5q.136 3.978-2 7 .585-7.384-3.5-1a141 141 0 0 1-9 15 169 169 0 0 0-2.5 18q.277 9.597 2 19a39.5 39.5 0 0 0-2.5-5q-4.345-23.85 8-44 3.6-5.853 9.5-9" style="opacity:1"/><path fill="#d4a53b" d="M215.5 305.5v2q-1.94 2.013-2.5 5-1.857 18.808 5.5 36l-1 2q-3.18-2.058-3 2-3.636 2.919-12 4a125 125 0 0 1-2-19 169 169 0 0 1 2.5-18q4.899-7.11 9-15 4.085-6.384 3.5 1" style="opacity:1"/><path fill="#bca156" d="M218.5 313.5q-1.585 15.762 5 30-2.454-1.874-3.5-5-3.781-12.538-1.5-25" style="opacity:1"/><path fill="#d2a53c" d="M262.5 308.5a43 43 0 0 1 5 1.5q21.045 14.03 31 37a83 83 0 0 1-3 12.5h-2a34.5 34.5 0 0 0-6-8q.129-1.494-1-2.5-6.58-3.367-14-3.5.634-3.422-2-5-5.486-11.492-18-9.5-4.782 3.151-8-1.5-2.078-4.139-2-9a107 107 0 0 1 2-9q8.337-4.187 18-3" style="opacity:1"/><path fill="#cda346" d="M240.5 301.5q2.197 1.359 3 4-11.982 11.829-3 26 9.781 6.985 0 14.5-9.686 5.795-17-2.5a13.5 13.5 0 0 1 6 2.5q3.97.746 8 .5a6.85 6.85 0 0 1 1-4l-8-2-1-2q3.534-1.191 7 1 1.851-2.847-1-5 3.598-4.555-.5-9-2.805 8.23-4.5-.5 5.208-5.234 5-13-2.577-3.843-3-8.5 3.781-.09 7 2l2-1a5.58 5.58 0 0 1-1-3" style="opacity:1"/><path fill="#b69c53" d="M244.5 311.5a107 107 0 0 0-2 9q-.078 4.861 2 9-4.656-3.202-4-9-.656-5.798 4-9" style="opacity:1"/><path fill="#c4a456" d="M320.5 310.5a302 302 0 0 0-20-1q-.255 1.983 1 3.5 5.784.266 11 1.5h-12l-2-5q11.18-4.212 22 1" style="opacity:1"/><path fill="#b59a53" d="M262.5 308.5q-9.663-1.187-18 3 1.689-2.93 5-4.5a30.5 30.5 0 0 1 11 0q1.374.417 2 1.5" style="opacity:1"/><path fill="#d4a439" d="M225.5 381.5q7.986-3.321 17-3.5 5.265-4.96 12-2.5 6.184-2.914 9-9a26.6 26.6 0 0 1 2 3.5q-.37 4.422-1 9.5-7.305.876-2 4.5a386 386 0 0 0-13.5 2.5 184 184 0 0 1-23.5-5" style="opacity:1"/><path fill="#0c263f" d="M325.5 409.5v5q-2.971-1.272-6-1.5l2 1q-1.647 1.155 0 2.5-8.078 3.097-17 4a374 374 0 0 0-36 4q-21.56.973-42-2 23.005.25 46-.5l1.5-1.5q1.239-16.761-.5-33v-5q2.988-.258 5 2 3.745-1.617 5-5.5 3.711-.17 6-3a16.24 16.24 0 0 1 8 0 26.6 26.6 0 0 0 2 3.5q1.329-1.237 1-3a113 113 0 0 1 15 .5 25.8 25.8 0 0 0-8 2q8.205 1.047 16-1.5a1308 1308 0 0 0 2 32" style="opacity:1"/><path fill="#fefffe" d="M83.5 391.5q2 1 0 0" style="opacity:.004"/><path fill="#83242e" d="M273.5 387.5a269 269 0 0 1-1 32.5 226.5 226.5 0 0 1-47 .5v-1q-.963-16.081 2-31a31.6 31.6 0 0 0 10 3q.166.926 1 1.5 11.573 1.15 23-.5-10.386 2.945-22 2-.255 1.983 1 3.5a207 207 0 0 1-4 10q3.623 2.21 0 5 .901 2.407 3 4-2.858 1.24-1 3.5a19.9 19.9 0 0 0 3.5-4q6.819 2.613 14.5 3a75.4 75.4 0 0 1 16-1v-28h-6a66 66 0 0 0 7-3" style="opacity:1"/><path fill="#87212a" d="M266.5 390.5h6v28a75.4 75.4 0 0 0-16 1q-7.681-.387-14.5-3a19.9 19.9 0 0 1-3.5 4q-1.858-2.26 1-3.5-2.099-1.593-3-4 3.623-2.79 0-5a207 207 0 0 0 4-10q-1.255-1.517-1-3.5 11.614.945 22-2 3.08.147 5-2" style="opacity:1"/><path fill="#592830" d="M266.5 390.5q-1.92 2.147-5 2a94.8 94.8 0 0 1-23 .5q-.834-.574-1-1.5 14.54 1.936 29-1" style="opacity:1"/><path fill="#592e3e" d="M224.5 387.5q1.937-.356 3 1-2.963 14.919-2 31-1.492-15.73-1-32" style="opacity:1"/><path fill="#fefffe" d="M468.5 402.5q2 1 0 0" style="opacity:.004"/><path fill="#171f29" d="M403.5 362.5a5.73 5.73 0 0 0-1 3q-31.575 39.544-81 51-1.647-1.345 0-2.5l-2-1q3.029.228 6 1.5v-4q17.556-4.68 33-14a121 121 0 0 0 13-7q2.343-.35 4-2 .595 1.538 2 .5-1.806-4.786 3.5-6.5a10.3 10.3 0 0 1 1.5-4q1.902 1.392 4 .5-2.025-4.707 3-6.5.926-.166 1.5-1l1 4q.933-3.347 3.5-5.5l-2-1a38.6 38.6 0 0 0 6-6.5 6.85 6.85 0 0 0 4 1" style="opacity:1"/><path fill="#fefffe" d="M35.5 408.5q2 1 0 0" style="opacity:.004"/><path fill="#caa248" d="M160.5 412.5h4a72.3 72.3 0 0 0 15 5.5 2467 2467 0 0 1 33 6.5 104.4 104.4 0 0 1-19.5-1q-2.598 2.56-5.5 2-.828-2.254 0-5a29.4 29.4 0 0 0-12 2l4 2a26 26 0 0 1-5 3.5q15.43 4.916 32 6.5 6.825.577 12.5-3l1.5 1q-6.299 2.791-1 5a498 498 0 0 0-28-3 199 199 0 0 1-36-11q3.105.077 5.5-2a52 52 0 0 0 7.5 3.5l-1 1q2.5 1 5 0-2.487-1.088-1.5-3.5a11.14 11.14 0 0 0 5.5-3.5 113 113 0 0 0-14-2 3.65 3.65 0 0 0 1-1.5q-1.905-1.182-3-3" style="opacity:1"/><path fill="#fefffe" d="M62.5 416.5q2 1 0 0" style="opacity:.004"/><path fill="#b0b4b8" d="M115.5 415.5q2.29-.11 3 2-2.29.11-3-2" style="opacity:.161"/><path fill="#cfa340" d="M424.5 351.5a32.5 32.5 0 0 1-3 7q-13.188 20.708-31 38-48.894 37.148-111 42-9.045 7.013-18 14-.129-1.494 1-2.5a20.4 20.4 0 0 1-5.5-1.5l-1 1a9.5 9.5 0 0 0-1.5-2.5q6.721-3.227 10.5-9.5 3.762.522 7.5-2 1.124 2.268 3.5 3 10.219-4.414 21.5-4.5l-2-1q18.047-1.517 35-6 2-1 0-2a18.14 18.14 0 0 1-7.5-3.5q-3.366.55-1.5 3-3.205.87-5.5 3a8.4 8.4 0 0 1-.5-4q2.217.393 4-1-3.897-1.602-7.5 1a39.6 39.6 0 0 0-11.5-1l4-2q8.922-.903 17-4 49.425-11.456 81-51 1.438-.679 2.5-2 1.088 2.487 3.5 1.5-2.26-1.256-1.5-3.5 1.651 2.841 4 2-1.42-2.774-2-6 3.135-1.936 4 2-2.134-11.6 6.5-19.5 1.988.223 3.5-.5.41 2.744 2.5 4.5-1.402 3.572-1 7.5" style="opacity:1"/><path fill="#fefffe" d="M442.5 418.5q2 1 0 0" style="opacity:.004"/><path fill="#162020" d="M164.5 412.5h9q2.796 2.577 7 3.5a3449 3449 0 0 1 20 4.5q7.141-1.875 14 1 4.407-1.612 9-.5l-5 1q3.643 1.055 7-.5 0 1 1 1 20.44 2.973 42 2l-7 2a450 450 0 0 1-48-2h-1a2467 2467 0 0 0-33-6.5 72.3 72.3 0 0 1-15-5.5" style="opacity:1"/><path fill="#fefffe" d="M63.5 420.5q2 1 0 0" style="opacity:.004"/><path fill="#18262c" d="M137.5 416.5a144.5 144.5 0 0 0 18 7 199 199 0 0 0 36 11 319 319 0 0 0-13-.5q4.019 2.683-.5 3.5a7.3 7.3 0 0 1-3.5-2 3.65 3.65 0 0 0-1.5 1l-5.5-3.5q2.826-.324 5-2a167 167 0 0 1-19.5-6.5q-3.036.45-1.5 2.5-5.58 2.088-6-3.5-1.31-1.443-11 0v3q4.527.306 9 1v3q-11.041-3.071-20-10 .352-.895 1.5-1a19.2 19.2 0 0 0 6.5 3q1.817-1.16 0-2.5l2-.5q3.792 2.163 8 1.5-3.203-1.314-4-4.5" style="opacity:1"/><path fill="#291d2d" d="M273.5 387.5q1.739 16.239.5 33l-1.5 1.5q-22.995.75-46 .5-1 0-1-1v-1a226.5 226.5 0 0 0 47-.5 269 269 0 0 0 1-32.5" style="opacity:1"/><path fill="#292c1b" d="m304.5 420.5-4 2a2229 2229 0 0 0-33 4h-6l7-2a374 374 0 0 1 36-4" style="opacity:1"/><path fill="#d3a43a" d="M212.5 424.5h1q1.144 1.152 3 1.5 9.595.273 19 2 13.5 1 27 0 2.822-.297 5-1.5a2229 2229 0 0 1 33-4 39.6 39.6 0 0 1 11.5 1q3.603-2.602 7.5-1-1.783 1.393-4 1a8.4 8.4 0 0 0 .5 4q2.295-2.13 5.5-3-1.866-2.45 1.5-3a18.14 18.14 0 0 0 7.5 3.5q2 1 0 2-16.953 4.483-35 6l2 1q-11.281.086-21.5 4.5-2.376-.732-3.5-3-3.738 2.522-7.5 2-3.779 6.273-10.5 9.5a9.5 9.5 0 0 1 1.5 2.5l1-1a20.4 20.4 0 0 0 5.5 1.5q-1.129 1.006-1 2.5a238 238 0 0 1-12.5 10 355 355 0 0 1-29.5-25q-5.299-2.209 1-5l-1.5-1q-5.675 3.577-12.5 3-16.57-1.584-32-6.5a26 26 0 0 0 5-3.5l-4-2a29.4 29.4 0 0 1 12-2q-.828 2.746 0 5 2.902.56 5.5-2a104.4 104.4 0 0 0 19.5 1" style="opacity:1"/><path fill="#9b9da6" d="M316.5 443.5q-4.16 1.736-9 2 4.006-2.427 9-2" style="opacity:.235"/><path fill="#7f858d" d="M195.5 445.5q4.58-.584 8 2-4.309-.453-8-2" style="opacity:.38"/><path fill="#132433" d="M437.5 350.5q-24.68 54.429-79 79.5a170.3 170.3 0 0 1-42 13.5q-4.994-.427-9 2a66.4 66.4 0 0 1-16 2q-4.332-.765-7 2h-1q-6.217-2.098-7 5-2.05 2.438-9 2.5 2.41 1.573 2 4.5l-5 4q-2.436.21-3.5-2a8.4 8.4 0 0 0-.5 4q-4.212.29-8 2v5q-3.29 1.946-7 0-10.513-7.03-19-16-.71-2.11-3-2a1670 1670 0 0 0-9-7.5 94 94 0 0 0-11-1.5q-3.42-2.584-8-2-27.615-2.997-52-15v-3a105 105 0 0 0-9-1v-3q9.69-1.443 11 0 .42 5.588 6 3.5-1.536-2.05 1.5-2.5a167 167 0 0 0 19.5 6.5q-2.174 1.676-5 2l5.5 3.5a3.65 3.65 0 0 1 1.5-1 7.3 7.3 0 0 0 3.5 2q4.519-.817.5-3.5 6.457.116 13 .5a498 498 0 0 1 28 3 355 355 0 0 0 29.5 25 238 238 0 0 0 12.5-10q8.955-6.987 18-14 62.106-4.852 111-42 2.927.41 4.5-2 .621.686 1.5 1 .894-1.824.5-4a38.2 38.2 0 0 0 9.5-9.5q1.423-.926 2.5.5a11.4 11.4 0 0 0 2.5-2q4.767-5.585 6-12a32.4 32.4 0 0 0 4.5 3 8.4 8.4 0 0 0 .5-4h-3l2-9a32.5 32.5 0 0 0 3-7l2-1q-.156 3.885 2 7a4.93 4.93 0 0 1-1 2.5q1.9.464 3.5 1.5.393-5.757 3.5-10.5 1.014-2.525 3-.5" style="opacity:1"/><path fill="#c0a35d" d="M213.5 424.5a450 450 0 0 0 48 2h6q-2.178 1.203-5 1.5-13.5 1-27 0a124.6 124.6 0 0 0-19-2q-1.856-.348-3-1.5" style="opacity:1"/><path fill="#85898f" d="M291.5 447.5a68 68 0 0 1-7 2q2.668-2.765 7-2" style="opacity:.427"/><path fill="#fefffe" d="M44.5 453.5q2 1 0 0M485.5 453.5q2 1 0 0" style="opacity:.004"/><path fill="#93979a" d="M223.5 456.5q2.29-.11 3 2-2.29.11-3-2" style="opacity:.463"/><path fill="#3f4852" d="M283.5 449.5a121 121 0 0 1-14 12q.41-2.927-2-4.5 6.95-.062 9-2.5.783-7.098 7-5" style="opacity:.8"/><path fill="#fefffe" d="M329.5 457.5q2 1 0 0M17.5 467.5q2 1 0 0" style="opacity:.004"/><path fill="#3c4551" d="M264.5 465.5a2841 2841 0 0 1-12 9v-5a23.1 23.1 0 0 1 8-2 8.4 8.4 0 0 1 .5-4q1.064 2.21 3.5 2" style="opacity:1"/><path fill="#fefffe" d="M332.5 474.5q2 1 0 0M270.5 487.5q2 1 0 0M61.5 496.5q2 1 0 0" style="opacity:.004"/></svg>